<svg width="98" height="28" viewBox="0 0 98 28" fill="none" xmlns="http://www.w3.org/2000/svg">
<path d="M1.924 3.112H16.38V7.402H7.67V10.47H15.158V14.578H7.67V21H1.924V3.112ZM19.0838 5.66V2.15H24.2578V5.66H19.0838ZM19.0838 21V7.272H24.2578V21H19.0838ZM36.712 7.272V10.782H33.8V16.008C33.8 16.632 33.904 17.0913 34.112 17.386C34.32 17.6633 34.7013 17.802 35.256 17.802H36.712V20.844C36.296 20.9827 35.7587 21.0953 35.1 21.182C34.4413 21.2687 33.8693 21.312 33.384 21.312C31.8587 21.312 30.68 21.0347 29.848 20.48C29.0333 19.9253 28.626 18.9807 28.626 17.646V10.782H26.702V7.272H28.834L29.952 3.112H33.8V7.272H36.712Z" fill="white"/>
<path d="M39.3 21V2.202H41.432V21H39.3ZM48.6507 21.312C47.056 21.312 45.8427 20.74 45.0107 19.596C44.1787 18.4347 43.7627 16.6233 43.7627 14.162C43.7627 11.7007 44.1787 9.898 45.0107 8.754C45.8427 7.59267 47.056 7.012 48.6507 7.012C50.2453 7.012 51.4587 7.59267 52.2907 8.754C53.1227 9.898 53.5387 11.7007 53.5387 14.162C53.5387 16.6233 53.1227 18.4347 52.2907 19.596C51.4587 20.74 50.2453 21.312 48.6507 21.312ZM48.6507 19.414C49.5347 19.414 50.1933 19.0153 50.6267 18.218C51.0773 17.4207 51.3027 16.2333 51.3027 14.656V13.668C51.3027 12.0907 51.0773 10.9033 50.6267 10.106C50.1933 9.30867 49.5347 8.91 48.6507 8.91C47.7667 8.91 47.0993 9.30867 46.6487 10.106C46.2153 10.9033 45.9987 12.0907 45.9987 13.668V14.656C45.9987 16.2333 46.2153 17.4207 46.6487 18.218C47.0993 19.0153 47.7667 19.414 48.6507 19.414ZM58.2981 25.732C57.1887 25.732 56.3481 25.4113 55.7761 24.77C55.2041 24.146 54.9181 23.3833 54.9181 22.482C54.9181 21.8233 55.0741 21.2253 55.3861 20.688C55.7154 20.1507 56.1487 19.778 56.6861 19.57C56.3394 19.3447 56.0621 19.05 55.8541 18.686C55.6634 18.3047 55.5681 17.9147 55.5681 17.516C55.5681 16.9613 55.7414 16.4847 56.0881 16.086C56.4521 15.67 56.9201 15.358 57.4921 15.15C57.0067 14.7513 56.6167 14.2573 56.3221 13.668C56.0447 13.0613 55.9061 12.3767 55.9061 11.614C55.9061 10.1753 56.3047 9.04867 57.1021 8.234C57.8994 7.41933 58.9914 7.012 60.3781 7.012C61.0887 7.012 61.7474 7.17667 62.3541 7.506C62.9607 7.17667 63.3767 6.804 63.6021 6.388C63.8274 5.972 63.9747 5.54733 64.0441 5.114H65.9161C65.9161 5.92867 65.7081 6.63067 65.2921 7.22C64.8934 7.80933 64.3387 8.19933 63.6281 8.39C64.0094 8.77133 64.3041 9.23933 64.5121 9.794C64.7374 10.3313 64.8501 10.938 64.8501 11.614C64.8501 13.0353 64.4514 14.1533 63.6541 14.968C62.8741 15.7827 61.8167 16.1987 60.4821 16.216H59.0521C58.7054 16.216 58.4107 16.3373 58.1681 16.58C57.9254 16.8053 57.8041 17.0913 57.8041 17.438C57.8041 17.7673 57.9254 18.0533 58.1681 18.296C58.4281 18.5387 58.7227 18.66 59.0521 18.66H62.9521C63.9401 18.66 64.7201 18.9807 65.2921 19.622C65.8814 20.246 66.1761 20.9913 66.1761 21.858C66.1761 22.5687 66.0201 23.2187 65.7081 23.808C65.4134 24.3973 64.9627 24.8653 64.3561 25.212C63.7667 25.5587 63.0387 25.732 62.1721 25.732H58.2981ZM58.6361 23.886H62.4061C62.8567 23.886 63.2381 23.7213 63.5501 23.392C63.8621 23.08 64.0181 22.7073 64.0181 22.274C64.0181 21.8233 63.8881 21.442 63.6281 21.13C63.3681 20.8353 62.9607 20.688 62.4061 20.688H58.6361C58.0987 20.688 57.7001 20.8353 57.4401 21.13C57.1801 21.442 57.0501 21.8233 57.0501 22.274C57.0501 22.7073 57.1801 23.08 57.4401 23.392C57.7001 23.7213 58.0987 23.886 58.6361 23.886ZM60.3521 14.448C61.1147 14.448 61.6954 14.1967 62.0941 13.694C62.4927 13.174 62.6921 12.4807 62.6921 11.614C62.6921 10.6953 62.4927 9.99333 62.0941 9.508C61.6954 9.02267 61.1147 8.78 60.3521 8.78C59.6067 8.78 59.0347 9.04 58.6361 9.56C58.2374 10.0627 58.0381 10.7473 58.0381 11.614C58.0381 12.5153 58.2374 13.2173 58.6361 13.72C59.0347 14.2053 59.6067 14.448 60.3521 14.448Z" fill="#FFC300"/>
<path d="M97.75 19.5312C97.75 19.9375 97.5469 20.293 97.293 20.4961C97.0391 21.2578 97.0391 23.4922 97.293 24.3047C97.5469 24.5078 97.75 24.8633 97.75 25.2188V26.0312C97.75 26.7422 97.1914 27.25 96.5312 27.25H79.875C77.1836 27.25 75 25.0664 75 22.375V6.125C75 3.43359 77.1836 1.25 79.875 1.25H96.5312C97.1914 1.25 97.75 1.80859 97.75 2.46875V19.5312ZM81.5 8.05469V9.07031C81.5 9.27344 81.6016 9.375 81.8047 9.375H92.5703C92.7227 9.375 92.875 9.27344 92.875 9.07031V8.05469C92.875 7.90234 92.7227 7.75 92.5703 7.75H81.8047C81.6016 7.75 81.5 7.90234 81.5 8.05469ZM81.5 11.3047V12.3203C81.5 12.5234 81.6016 12.625 81.8047 12.625H92.5703C92.7227 12.625 92.875 12.5234 92.875 12.3203V11.3047C92.875 11.1523 92.7227 11 92.5703 11H81.8047C81.6016 11 81.5 11.1523 81.5 11.3047ZM94.3477 24C94.2461 23.1367 94.2461 21.6641 94.3477 20.75H79.875C78.9609 20.75 78.25 21.5117 78.25 22.375C78.25 23.2891 78.9609 24 79.875 24H94.3477Z" fill="#003566"/>
<path d="M80.8438 7.375C81.1992 7.375 81.5 7.67578 81.5 8.03125V15.4688C81.5 15.8516 81.1992 16.125 80.8438 16.125H79.5312C79.1484 16.125 78.875 15.8516 78.875 15.4688V12.625H78.2188C78.082 12.625 78 12.543 78 12.4062V11.0938C78 10.9844 78.082 10.875 78.2188 10.875H78.875V8.03125C78.875 7.67578 79.1484 7.375 79.5312 7.375H80.8438ZM95.2812 10.875C95.3906 10.875 95.5 10.9844 95.5 11.0938V12.4062C95.5 12.543 95.3906 12.625 95.2812 12.625H94.625V15.4688C94.625 15.8516 94.3242 16.125 93.9688 16.125H92.6562C92.2734 16.125 92 15.8516 92 15.4688V8.03125C92 7.67578 92.2734 7.375 92.6562 7.375H93.9688C94.3242 7.375 94.625 7.67578 94.625 8.03125V10.875H95.2812ZM90.4688 5.625C90.8242 5.625 91.125 5.92578 91.125 6.28125V17.2188C91.125 17.6016 90.8242 17.875 90.4688 17.875H89.1562C88.7734 17.875 88.5 17.6016 88.5 17.2188V12.625H85V17.2188C85 17.6016 84.6992 17.875 84.3438 17.875H83.0312C82.6484 17.875 82.375 17.6016 82.375 17.2188V6.28125C82.375 5.92578 82.6484 5.625 83.0312 5.625H84.3438C84.6992 5.625 85 5.92578 85 6.28125V10.875H88.5V6.28125C88.5 5.92578 88.7734 5.625 89.1562 5.625H90.4688Z" fill="white"/>
</svg>
