<svg width="334" height="329" viewBox="0 0 334 329" fill="none" xmlns="http://www.w3.org/2000/svg">
<path d="M333.909 109.671C330.381 83.1667 298.15 46.3485 298.15 46.3485C289.743 25.0462 268.025 32.1302 268.025 32.1302L253.528 35.9828C239.177 40.2348 239.852 58.7371 246.077 62.4872C248.807 64.1289 256.808 64.557 259.174 62.4872C259.879 61.8594 259.341 58.8529 259.341 58.8529C274.564 59.6704 275.673 50.9833 275.673 50.9833L280.852 49.966C286.04 47.1711 287.192 59.0224 287.192 59.0224C283.664 92.6109 298.431 104.907 298.431 104.907C296.294 111.576 288.853 110.289 288.853 110.289C265.246 98.2075 247.73 121.037 247.73 121.037C234.385 109.839 206.845 129.679 206.845 129.679C191.414 132.684 190.5 114.393 190.5 114.393C190.5 114.393 189.785 102.742 189.285 101.672C188.559 99.8526 192.566 100.773 192.566 100.773C206.14 76.4403 192.566 79.6902 192.566 79.6902C195.855 37.7101 158.498 46.5214 158.498 46.5214C129.762 54.2802 140.288 82.4751 140.288 82.4751C133.98 80.9576 137.004 90.2238 137.004 90.2238C138.634 104.447 143.796 101.222 143.796 101.222C144.465 106.205 147.303 113.064 147.303 113.064L147.739 124.492C144.496 143.458 124.172 127.727 124.172 127.727C112.25 111.169 82.3583 120.428 82.3583 120.428C66.9168 97.8013 42.5947 110.717 42.5947 110.717C45.1783 105.095 42.1585 77.1285 42.1585 77.1285C45.1783 73.6738 51.2434 54.1107 51.2434 54.1107C53.8372 57.5654 65.5381 58.173 65.5381 58.173C66.4311 63.3652 70.1922 65.4769 70.1922 65.4769C78.1422 68.7235 74.8463 43.0919 74.8463 43.0919C76.9271 34.9554 63.6447 32.9981 63.6447 32.9981C40.4782 26.7216 35.1134 41.1346 35.1134 41.1346L29.0687 54.0805C20.4404 63.3467 4.24734 94.9862 4.24734 94.9862C-5.07281 120.17 3.85197 124.712 3.85197 124.712L20.662 137.582C49.1831 164.782 66.4191 160.877 66.4191 160.877C89.3574 160.447 87.4691 175.075 87.4691 175.075C88.3826 197.472 104.259 220.705 104.259 220.705C105.426 224.609 106.256 228.739 107.081 232.828H215.826C217.84 228.403 219.937 224.272 221.804 221.707C230.709 209.318 242.87 193.25 247.352 182.599C256.13 161.654 260.293 162.145 260.293 162.145C291.621 162.145 308.908 139.77 308.908 139.77C314.045 133.29 321.848 125.306 327.566 122.107C335.257 117.772 333.909 109.671 333.909 109.671Z" fill="#003566"/>
<path d="M135.924 167.112H150.38V171.402H141.67V174.47H149.158V178.578H141.67V185H135.924V167.112ZM153.084 169.66V166.15H158.258V169.66H153.084ZM153.084 185V171.272H158.258V185H153.084ZM170.712 171.272V174.782H167.8V180.008C167.8 180.632 167.904 181.091 168.112 181.386C168.32 181.663 168.701 181.802 169.256 181.802H170.712V184.844C170.296 184.983 169.759 185.095 169.1 185.182C168.441 185.269 167.869 185.312 167.384 185.312C165.859 185.312 164.68 185.035 163.848 184.48C163.033 183.925 162.626 182.981 162.626 181.646V174.782H160.702V171.272H162.834L163.952 167.112H167.8V171.272H170.712Z" fill="white"/>
<path d="M173.3 185V166.202H175.432V185H173.3ZM182.651 185.312C181.056 185.312 179.843 184.74 179.011 183.596C178.179 182.435 177.763 180.623 177.763 178.162C177.763 175.701 178.179 173.898 179.011 172.754C179.843 171.593 181.056 171.012 182.651 171.012C184.245 171.012 185.459 171.593 186.291 172.754C187.123 173.898 187.539 175.701 187.539 178.162C187.539 180.623 187.123 182.435 186.291 183.596C185.459 184.74 184.245 185.312 182.651 185.312ZM182.651 183.414C183.535 183.414 184.193 183.015 184.627 182.218C185.077 181.421 185.303 180.233 185.303 178.656V177.668C185.303 176.091 185.077 174.903 184.627 174.106C184.193 173.309 183.535 172.91 182.651 172.91C181.767 172.91 181.099 173.309 180.649 174.106C180.215 174.903 179.999 176.091 179.999 177.668V178.656C179.999 180.233 180.215 181.421 180.649 182.218C181.099 183.015 181.767 183.414 182.651 183.414ZM192.298 189.732C191.189 189.732 190.348 189.411 189.776 188.77C189.204 188.146 188.918 187.383 188.918 186.482C188.918 185.823 189.074 185.225 189.386 184.688C189.715 184.151 190.149 183.778 190.686 183.57C190.339 183.345 190.062 183.05 189.854 182.686C189.663 182.305 189.568 181.915 189.568 181.516C189.568 180.961 189.741 180.485 190.088 180.086C190.452 179.67 190.92 179.358 191.492 179.15C191.007 178.751 190.617 178.257 190.322 177.668C190.045 177.061 189.906 176.377 189.906 175.614C189.906 174.175 190.305 173.049 191.102 172.234C191.899 171.419 192.991 171.012 194.378 171.012C195.089 171.012 195.747 171.177 196.354 171.506C196.961 171.177 197.377 170.804 197.602 170.388C197.827 169.972 197.975 169.547 198.044 169.114H199.916C199.916 169.929 199.708 170.631 199.292 171.22C198.893 171.809 198.339 172.199 197.628 172.39C198.009 172.771 198.304 173.239 198.512 173.794C198.737 174.331 198.85 174.938 198.85 175.614C198.85 177.035 198.451 178.153 197.654 178.968C196.874 179.783 195.817 180.199 194.482 180.216H193.052C192.705 180.216 192.411 180.337 192.168 180.58C191.925 180.805 191.804 181.091 191.804 181.438C191.804 181.767 191.925 182.053 192.168 182.296C192.428 182.539 192.723 182.66 193.052 182.66H196.952C197.94 182.66 198.72 182.981 199.292 183.622C199.881 184.246 200.176 184.991 200.176 185.858C200.176 186.569 200.02 187.219 199.708 187.808C199.413 188.397 198.963 188.865 198.356 189.212C197.767 189.559 197.039 189.732 196.172 189.732H192.298ZM192.636 187.886H196.406C196.857 187.886 197.238 187.721 197.55 187.392C197.862 187.08 198.018 186.707 198.018 186.274C198.018 185.823 197.888 185.442 197.628 185.13C197.368 184.835 196.961 184.688 196.406 184.688H192.636C192.099 184.688 191.7 184.835 191.44 185.13C191.18 185.442 191.05 185.823 191.05 186.274C191.05 186.707 191.18 187.08 191.44 187.392C191.7 187.721 192.099 187.886 192.636 187.886ZM194.352 178.448C195.115 178.448 195.695 178.197 196.094 177.694C196.493 177.174 196.692 176.481 196.692 175.614C196.692 174.695 196.493 173.993 196.094 173.508C195.695 173.023 195.115 172.78 194.352 172.78C193.607 172.78 193.035 173.04 192.636 173.56C192.237 174.063 192.038 174.747 192.038 175.614C192.038 176.515 192.237 177.217 192.636 177.72C193.035 178.205 193.607 178.448 194.352 178.448Z" fill="#FFC300"/>
</svg>
